<svg width="45" height="37" viewBox="0 0 45 37" fill="none" xmlns="http://www.w3.org/2000/svg">
<path d="M32.1432 15.1822H12.8575C12.6365 15.1822 12.4557 15.363 12.4557 15.584V35.7737C12.4557 35.9947 12.6365 36.1755 12.8575 36.1755H32.1432C32.3642 36.1755 32.545 35.9947 32.545 35.7737V15.584C32.545 15.363 32.3642 15.1822 32.1432 15.1822ZM15.67 18.3965H29.3307V24.2726H15.67V18.3965ZM29.3307 32.9612H15.67V27.0851H29.3307V32.9612Z" fill="#5CBF14"/>
<path d="M18.0807 30.3435C18.0807 30.7698 18.2501 31.1785 18.5515 31.4799C18.8529 31.7813 19.2616 31.9507 19.6879 31.9507C20.1141 31.9507 20.5229 31.7813 20.8243 31.4799C21.1257 31.1785 21.295 30.7698 21.295 30.3435C21.295 29.9173 21.1257 29.5085 20.8243 29.2071C20.5229 28.9057 20.1141 28.7364 19.6879 28.7364C19.2616 28.7364 18.8529 28.9057 18.5515 29.2071C18.2501 29.5085 18.0807 29.9173 18.0807 30.3435ZM18.0807 21.4038C18.0807 21.83 18.2501 22.2388 18.5515 22.5402C18.8529 22.8416 19.2616 23.0109 19.6879 23.0109C20.1141 23.0109 20.5229 22.8416 20.8243 22.5402C21.1257 22.2388 21.295 21.83 21.295 21.4038C21.295 20.9776 21.1257 20.5688 20.8243 20.2674C20.5229 19.966 20.1141 19.7966 19.6879 19.7966C19.2616 19.7966 18.8529 19.966 18.5515 20.2674C18.2501 20.5688 18.0807 20.9776 18.0807 21.4038Z" fill="#5CBF14"/>
<path d="M37.537 11.3131C35.2368 5.24107 29.3757 0.921875 22.5102 0.921875C15.6447 0.921875 9.78363 5.23605 7.48341 11.308C3.15919 12.4481 -0.0249641 16.4007 0.000147493 21.0915C0.0302814 26.3348 4.09836 30.5988 9.22113 31.0558C9.45718 31.0759 9.65807 30.8901 9.65807 30.654V27.6205C9.65807 27.4196 9.5074 27.2489 9.30651 27.2238C7.95048 27.053 6.66979 26.4604 5.68542 25.4911C4.48006 24.3108 3.81711 22.7238 3.81711 21.0413C3.81711 19.635 4.27414 18.3092 5.13296 17.2042C5.97169 16.1295 7.15193 15.351 8.45271 15.0095L10.3562 14.5073L11.0543 12.6641C11.4862 11.519 12.0889 10.4442 12.8472 9.47489C13.5956 8.5106 14.4845 7.66685 15.4789 6.96373C17.5431 5.51228 19.9739 4.74386 22.5102 4.74386C25.0465 4.74386 27.4773 5.51228 29.5414 6.96875C30.5409 7.67188 31.4248 8.51563 32.1731 9.47991C32.9315 10.4492 33.5342 11.524 33.9661 12.6691L34.6592 14.5073L36.5576 15.0095C39.2797 15.7327 41.1832 18.2087 41.1832 21.0363C41.1832 22.7238 40.5202 24.3058 39.3149 25.486C38.3355 26.4503 37.0599 27.048 35.7038 27.2188C35.5029 27.2439 35.3573 27.4146 35.3573 27.6155V30.654C35.3573 30.8901 35.5632 31.0759 35.7993 31.0558C40.907 30.5938 44.965 26.3348 45.0001 21.1016C45.0303 16.4107 41.8512 12.4581 37.537 11.3131Z" fill="#5CBF14"/>
</svg>
