<svg width="45" height="41" viewBox="0 0 45 41" fill="none" xmlns="http://www.w3.org/2000/svg">
<path d="M44.2442 15.4807H31.3871C31.1661 15.4807 30.9853 15.6615 30.9853 15.8825V18.2932C30.9853 18.5142 31.1661 18.695 31.3871 18.695H44.2442C44.4652 18.695 44.646 18.5142 44.646 18.2932V15.8825C44.646 15.6615 44.4652 15.4807 44.2442 15.4807ZM37.5143 22.3111H31.3871C31.1661 22.3111 30.9853 22.4919 30.9853 22.7128V25.1236C30.9853 25.3445 31.1661 25.5253 31.3871 25.5253H37.5143C37.7353 25.5253 37.9161 25.3445 37.9161 25.1236V22.7128C37.9161 22.4919 37.7353 22.3111 37.5143 22.3111ZM20.7548 10.9857H18.5801C18.2687 10.9857 18.0176 11.2368 18.0176 11.5482V24.0036C18.0176 24.1844 18.103 24.3501 18.2487 24.4556L25.7269 29.9098C25.978 30.0906 26.3296 30.0404 26.5104 29.7893L27.8011 28.0265V28.0214C27.9819 27.7703 27.9267 27.4188 27.6756 27.238L21.3123 22.6375V11.5482C21.3173 11.2368 21.0612 10.9857 20.7548 10.9857Z" fill="#5CBF14"/>
<path d="M37.2046 28.6216H34.3017C34.0205 28.6216 33.7543 28.7673 33.6036 29.0083C32.9648 30.0209 32.2152 30.9592 31.3687 31.8058C29.9111 33.2681 28.1832 34.4331 26.2811 35.236C24.3073 36.0697 22.213 36.4916 20.0534 36.4916C17.8888 36.4916 15.7945 36.0697 13.8257 35.236C11.9222 34.4324 10.2096 33.2773 8.73809 31.8058C7.26655 30.3342 6.11142 28.6216 5.30784 26.7182C4.47414 24.7494 4.05226 22.6551 4.05226 20.4905C4.05226 18.3259 4.47414 16.2366 5.30784 14.2628C6.11142 12.3593 7.26655 10.6467 8.73809 9.17519C10.2096 7.70365 11.9222 6.54851 13.8257 5.74494C15.7945 4.91123 17.8938 4.48936 20.0534 4.48936C22.218 4.48936 24.3123 4.91123 26.2811 5.74494C28.1845 6.54851 29.8971 7.70365 31.3687 9.17519C32.2152 10.0218 32.9648 10.96 33.6036 11.9726C33.7543 12.2137 34.0205 12.3593 34.3017 12.3593H37.2046C37.5512 12.3593 37.7721 11.9977 37.6164 11.6914C34.3419 5.17742 27.7024 0.943601 20.2894 0.858221C9.43619 0.722619 0.421125 9.60711 0.401035 20.4503C0.380946 31.3136 9.18508 40.1278 20.0484 40.1278C27.5567 40.1278 34.3067 35.8789 37.6164 29.2896C37.6517 29.2193 37.6685 29.1412 37.6651 29.0626C37.6616 28.984 37.6382 28.9076 37.5969 28.8407C37.5556 28.7738 37.4979 28.7185 37.4292 28.6801C37.3606 28.6418 37.2833 28.6216 37.2046 28.6216Z" fill="#5CBF14"/>
</svg>
