<svg width="45" height="45" viewBox="0 0 45 45" fill="none" xmlns="http://www.w3.org/2000/svg">
<path d="M41.2793 23.5886C42.123 22.4737 42.5901 21.1076 42.5901 19.6863C42.5901 17.4313 41.3295 15.2968 39.3005 14.1065C38.7781 13.8001 38.1834 13.6388 37.5778 13.6394H25.5343L25.8356 7.46697C25.9059 5.97534 25.3786 4.55905 24.354 3.47925C23.8512 2.94703 23.2446 2.52357 22.5717 2.23505C21.8988 1.94653 21.1738 1.79907 20.4416 1.80179C17.83 1.80179 15.5198 3.55961 14.8267 6.07579L10.5125 21.6952H4.01864C3.12969 21.6952 2.4115 22.4134 2.4115 23.3024V41.5836C2.4115 42.4726 3.12969 43.1907 4.01864 43.1907H34.2179C34.6799 43.1907 35.1319 43.1003 35.5488 42.9195C37.9394 41.9 39.4813 39.5646 39.4813 36.9731C39.4813 36.3403 39.3909 35.7175 39.2101 35.1149C40.0538 33.9999 40.5209 32.6338 40.5209 31.2125C40.5209 30.5797 40.4305 29.9569 40.2497 29.3542C41.0934 28.2393 41.5605 26.8732 41.5605 25.4519C41.5505 24.8191 41.4601 24.1913 41.2793 23.5886ZM6.02757 39.5747V25.3113H10.0957V39.5747H6.02757ZM37.9896 21.8459L36.8897 22.8001L37.5878 24.0758C37.8178 24.496 37.9371 24.9679 37.9344 25.4469C37.9344 26.2756 37.5728 27.0641 36.95 27.6065L35.8501 28.5607L36.5482 29.8364C36.7782 30.2566 36.8975 30.7285 36.8948 31.2075C36.8948 32.0362 36.5332 32.8247 35.9104 33.3671L34.8105 34.3213L35.5086 35.597C35.7386 36.0172 35.8579 36.4891 35.8551 36.9681C35.8551 38.0931 35.1922 39.1076 34.1676 39.5697H13.3099V25.1506L18.3071 7.0451C18.436 6.58104 18.7126 6.17163 19.0951 5.8789C19.4775 5.58617 19.945 5.42608 20.4266 5.42289C20.8083 5.42289 21.1849 5.53338 21.4863 5.75938C21.9835 6.13104 22.2497 6.69354 22.2195 7.29119L21.7374 17.2555H37.5276C38.4215 17.8029 38.974 18.727 38.974 19.6863C38.974 20.515 38.6124 21.2984 37.9896 21.8459Z" fill="#5CBF14"/>
</svg>
