<svg width="29" height="29" viewBox="0 0 29 29" fill="none" xmlns="http://www.w3.org/2000/svg">
<path d="M14.5002 9.94438C11.9914 9.94438 9.94401 11.9917 9.94401 14.5005C9.94401 17.0093 11.9914 19.0567 14.5002 19.0567C17.009 19.0567 19.0563 17.0093 19.0563 14.5005C19.0563 11.9917 17.009 9.94438 14.5002 9.94438ZM28.1652 14.5005C28.1652 12.6138 28.1823 10.7442 28.0763 8.86088C27.9704 6.67338 27.4714 4.73197 25.8717 3.13236C24.2687 1.52934 22.3307 1.03373 20.1432 0.927774C18.2565 0.821817 16.3869 0.838907 14.5036 0.838907C12.6169 0.838907 10.7472 0.821817 8.86393 0.927774C6.67643 1.03373 4.73503 1.53275 3.13542 3.13236C1.53239 4.73539 1.03678 6.67338 0.930826 8.86088C0.824869 10.7476 0.841959 12.6172 0.841959 14.5005C0.841959 16.3838 0.824869 18.2569 0.930826 20.1402C1.03678 22.3277 1.53581 24.2691 3.13542 25.8687C4.73844 27.4717 6.67643 27.9673 8.86393 28.0733C10.7507 28.1792 12.6203 28.1621 14.5036 28.1621C16.3903 28.1621 18.2599 28.1792 20.1432 28.0733C22.3307 27.9673 24.2721 27.4683 25.8717 25.8687C27.4748 24.2657 27.9704 22.3277 28.0763 20.1402C28.1857 18.2569 28.1652 16.3872 28.1652 14.5005ZM14.5002 21.5108C10.6208 21.5108 7.48991 18.3799 7.48991 14.5005C7.48991 10.6211 10.6208 7.49027 14.5002 7.49027C18.3796 7.49027 21.5104 10.6211 21.5104 14.5005C21.5104 18.3799 18.3796 21.5108 14.5002 21.5108ZM21.7975 8.84037C20.8918 8.84037 20.1603 8.10893 20.1603 7.20316C20.1603 6.2974 20.8918 5.56596 21.7975 5.56596C22.7033 5.56596 23.4347 6.2974 23.4347 7.20316C23.435 7.41824 23.3928 7.63126 23.3107 7.83002C23.2285 8.02877 23.1079 8.20936 22.9558 8.36145C22.8037 8.51353 22.6231 8.63411 22.4244 8.7163C22.2256 8.79848 22.0126 8.84064 21.7975 8.84037Z" fill="#5CBF14"/>
</svg>
