<svg width="39" height="37" viewBox="0 0 39 37" fill="none" xmlns="http://www.w3.org/2000/svg">
<path d="M38.3831 26.9344H35.6711V19.9031H21.2068V15.2826H33.1599C33.6019 15.2826 33.9635 14.921 33.9635 14.479V1.22008C33.9635 0.778111 33.6019 0.416504 33.1599 0.416504H5.8385C5.39654 0.416504 5.03493 0.778111 5.03493 1.22008V14.479C5.03493 14.921 5.39654 15.2826 5.8385 15.2826H17.7916V19.9031H3.32734V26.9344H0.615287C0.394305 26.9344 0.213501 27.1152 0.213501 27.3361V36.1754C0.213501 36.3964 0.394305 36.5772 0.615287 36.5772H9.45457C9.67556 36.5772 9.85636 36.3964 9.85636 36.1754V27.3361C9.85636 27.1152 9.67556 26.9344 9.45457 26.9344H6.74252V23.3183H17.7916V26.9344H15.0796C14.8586 26.9344 14.6778 27.1152 14.6778 27.3361V36.1754C14.6778 36.3964 14.8586 36.5772 15.0796 36.5772H23.9189C24.1398 36.5772 24.3206 36.3964 24.3206 36.1754V27.3361C24.3206 27.1152 24.1398 26.9344 23.9189 26.9344H21.2068V23.3183H32.2559V26.9344H29.5439C29.3229 26.9344 29.1421 27.1152 29.1421 27.3361V36.1754C29.1421 36.3964 29.3229 36.5772 29.5439 36.5772H38.3831C38.6041 36.5772 38.7849 36.3964 38.7849 36.1754V27.3361C38.7849 27.1152 38.6041 26.9344 38.3831 26.9344ZM6.64207 33.2273C6.64207 33.3027 6.58181 33.3629 6.50647 33.3629H3.55837C3.48303 33.3629 3.42276 33.3027 3.42276 33.2273V30.2792C3.42276 30.2039 3.48303 30.1436 3.55837 30.1436H6.50647C6.58181 30.1436 6.64207 30.2039 6.64207 30.2792V33.2273ZM21.1064 33.2273C21.1064 33.3027 21.0461 33.3629 20.9708 33.3629H18.0227C17.9473 33.3629 17.8871 33.3027 17.8871 33.2273V30.2792C17.8871 30.2039 17.9473 30.1436 18.0227 30.1436H20.9708C21.0461 30.1436 21.1064 30.2039 21.1064 30.2792V33.2273ZM8.24922 12.0683V3.63079H30.7492V12.0683H8.24922ZM35.5706 33.2273C35.5706 33.3027 35.5104 33.3629 35.435 33.3629H32.4869C32.4116 33.3629 32.3513 33.3027 32.3513 33.2273V30.2792C32.3513 30.2039 32.4116 30.1436 32.4869 30.1436H35.435C35.5104 30.1436 35.5706 30.2039 35.5706 30.2792V33.2273ZM11.8653 7.84954C11.8653 8.38234 12.0769 8.89332 12.4537 9.27007C12.8304 9.64681 13.3414 9.85847 13.8742 9.85847C14.407 9.85847 14.918 9.64681 15.2947 9.27007C15.6715 8.89332 15.8831 8.38234 15.8831 7.84954C15.8831 7.31674 15.6715 6.80576 15.2947 6.42901C14.918 6.05227 14.407 5.84061 13.8742 5.84061C13.3414 5.84061 12.8304 6.05227 12.4537 6.42901C12.0769 6.80576 11.8653 7.31674 11.8653 7.84954Z" fill="#5CBF14"/>
</svg>
