<svg width="29" height="29" viewBox="0 0 29 29" fill="none" xmlns="http://www.w3.org/2000/svg">
<path d="M27.0781 0.828125H1.92188C1.31689 0.828125 0.828125 1.31689 0.828125 1.92188V27.0781C0.828125 27.6831 1.31689 28.1719 1.92188 28.1719H27.0781C27.6831 28.1719 28.1719 27.6831 28.1719 27.0781V1.92188C28.1719 1.31689 27.6831 0.828125 27.0781 0.828125ZM21.8589 10.73C21.8691 10.8906 21.8691 11.0581 21.8691 11.2222C21.8691 16.2397 18.0479 22.0195 11.0649 22.0195C8.91162 22.0195 6.91553 21.394 5.23389 20.3174C5.5415 20.3516 5.83545 20.3652 6.1499 20.3652C7.92725 20.3652 9.56104 19.7637 10.8633 18.7451C9.19531 18.7109 7.79394 17.6172 7.31543 16.1133C7.8999 16.1987 8.42627 16.1987 9.02783 16.0449C8.16899 15.8704 7.39703 15.404 6.84312 14.7248C6.28921 14.0457 5.9875 13.1957 5.98926 12.3193V12.2715C6.4917 12.5552 7.08301 12.7295 7.70166 12.7534C7.18159 12.4068 6.75508 11.9372 6.45995 11.3863C6.16482 10.8354 6.01019 10.2202 6.00977 9.59521C6.00977 8.8877 6.19434 8.2417 6.52588 7.68115C7.47916 8.85467 8.66871 9.81445 10.0172 10.4981C11.3657 11.1818 12.843 11.5741 14.353 11.6494C13.8164 9.06885 15.7441 6.98047 18.0615 6.98047C19.1553 6.98047 20.1396 7.43848 20.8335 8.17676C21.6914 8.01611 22.5117 7.69482 23.2432 7.26416C22.9595 8.14258 22.3647 8.88428 21.5752 9.35254C22.3408 9.27051 23.0791 9.05859 23.7627 8.76123C23.2466 9.52002 22.6006 10.1934 21.8589 10.73Z" fill="#5CBF14"/>
</svg>
