<svg width="28" height="28" viewBox="0 0 28 28" fill="none" xmlns="http://www.w3.org/2000/svg">
<path d="M10.7505 11.8135H25.7505C25.888 11.8135 26.0005 11.701 26.0005 11.5635V9.81348C26.0005 9.67598 25.888 9.56348 25.7505 9.56348H10.7505C10.613 9.56348 10.5005 9.67598 10.5005 9.81348V11.5635C10.5005 11.701 10.613 11.8135 10.7505 11.8135ZM10.5005 18.1885C10.5005 18.326 10.613 18.4385 10.7505 18.4385H25.7505C25.888 18.4385 26.0005 18.326 26.0005 18.1885V16.4385C26.0005 16.301 25.888 16.1885 25.7505 16.1885H10.7505C10.613 16.1885 10.5005 16.301 10.5005 16.4385V18.1885ZM26.2505 3.00098H1.75049C1.61299 3.00098 1.50049 3.11348 1.50049 3.25098V5.00098C1.50049 5.13848 1.61299 5.25098 1.75049 5.25098H26.2505C26.388 5.25098 26.5005 5.13848 26.5005 5.00098V3.25098C26.5005 3.11348 26.388 3.00098 26.2505 3.00098ZM26.2505 22.751H1.75049C1.61299 22.751 1.50049 22.8635 1.50049 23.001V24.751C1.50049 24.8885 1.61299 25.001 1.75049 25.001H26.2505C26.388 25.001 26.5005 24.8885 26.5005 24.751V23.001C26.5005 22.8635 26.388 22.751 26.2505 22.751ZM1.60674 14.2166L6.49111 18.0635C6.67236 18.2072 6.94111 18.0791 6.94111 17.8479V10.1541C6.94111 9.92285 6.67549 9.79473 6.49111 9.93848L1.60674 13.7854C1.5739 13.8109 1.54732 13.8436 1.52904 13.881C1.51076 13.9183 1.50125 13.9594 1.50125 14.001C1.50125 14.0426 1.51076 14.0836 1.52904 14.121C1.54732 14.1584 1.5739 14.1911 1.60674 14.2166Z" fill="white"/>
</svg>
